<svg width="20" height="20" viewBox="0 0 20 20" fill="none" xmlns="http://www.w3.org/2000/svg">
<path d="M8.85 1.56874C7.05625 1.79999 5.35 2.65624 4 3.99999C2.4375 5.54999 1.6 7.46874 1.51875 9.68749C1.33125 14.5312 5.18125 18.5 10.0625 18.5C11.6875 18.5 13.3688 17.975 14.8063 17.0125C15.4938 16.5562 16.5563 15.4937 17.0125 14.8125C19 11.8312 19 8.17499 17.0125 5.19374C16.6125 4.58749 15.6688 3.61248 15.0313 3.13749C14.45 2.70623 13.1063 2.04374 12.4063 1.84373C11.3 1.52498 9.9875 1.42499 8.85 1.56874ZM12.2375 4.61874C13.2938 4.81249 14.1438 5.65624 14.3688 6.73749C14.4688 7.20624 14.4563 7.97499 14.3438 8.40624C14.0813 9.41249 13.3625 10.125 12.3375 10.4125C12.0688 10.4875 11.5625 10.525 10.4688 10.5562L8.96875 10.5937V10.9375V11.2812L10.4563 11.3L11.9375 11.3125V12.125V12.9375L10.4563 12.95L8.96875 12.9687L8.95 14.2375L8.9375 15.5062L7.98125 15.4875L7.03125 15.4687L7.0125 14.2L7 12.9375H6.28125H5.5625V12.125V11.3125H6.28125H7V10.9375V10.5625H6.28125H5.5625V9.74999V8.93749H6.28125H7V6.76249C7 5.56249 7.01875 4.56249 7.05 4.53124C7.1125 4.46874 11.8188 4.54998 12.2375 4.61874Z" fill="white"/>
<path d="M8.95 7.54375L8.96875 8.90625L9.75 8.925C10.6875 8.95 11.4062 8.8625 11.75 8.6875C12.4875 8.3125 12.65 7.2375 12.0688 6.625C11.7188 6.2625 11.3875 6.1875 10.05 6.1875H8.9375L8.95 7.54375Z" fill="white"/>
</svg>
