<svg width="18" height="18" viewBox="0 0 18 18" fill="none" xmlns="http://www.w3.org/2000/svg">
<path d="M13.1679 0.0115466C13.0304 0.0416255 3.56438 1.64866 2.34836 1.85491C1.77258 1.94944 1.33 2.04827 1.15383 2.11702C0.513595 2.37483 0.0237511 2.8217 -0.272733 3.42756C-0.629374 4.15803 -0.603593 3.68538 -0.603593 9.63225V14.9174L-0.509061 15.2182C-0.251249 16.0303 0.363204 16.6662 1.21399 16.9971L1.50188 17.1088L8.84094 17.1217C17.0007 17.1346 16.4421 17.1518 17.078 16.8381C17.5077 16.6276 18.0277 16.1162 18.2468 15.6908C18.582 15.0377 18.5562 15.4416 18.5734 10.4487C18.582 6.51272 18.5777 5.94124 18.5175 5.64475C18.3413 4.78108 17.7999 4.08069 17.0136 3.70256C16.412 3.41038 16.7085 3.42327 10.4265 3.42327C4.17024 3.42327 4.53117 3.44045 4.3593 3.15686C4.20031 2.89475 4.27766 2.59827 4.53977 2.46506C4.67297 2.39202 5.03391 2.38772 10.4952 2.40061C14.3495 2.4092 16.3046 2.40061 16.3046 2.37053C16.3046 2.24163 16.1585 1.81624 16.0296 1.55413C15.673 0.840845 15.007 0.299438 14.2335 0.0888915C13.9886 0.0244384 13.3441 -0.0228276 13.1679 0.0115466ZM14.3839 9.04788C14.6159 9.1596 14.9038 9.4346 15.0155 9.65374C15.1316 9.88147 15.1831 10.2424 15.1445 10.5045C14.964 11.6131 13.5933 12.0342 12.807 11.2221C12.1968 10.5948 12.373 9.48616 13.1464 9.08655C13.4214 8.94475 13.5116 8.92327 13.8597 8.94045C14.0874 8.94905 14.2421 8.97913 14.3839 9.04788Z" fill="white"/>
</svg>
