<svg width="41" height="27" viewBox="0 0 41 27" fill="none" xmlns="http://www.w3.org/2000/svg">
<path d="M9.28521 0.0795994C8.38638 0.248131 7.86474 0.440737 7.16655 0.841999C4.07683 2.61558 1.73345 7.27022 0.521641 14.0114C0.120379 16.2665 0 17.5586 0 19.6291C0 21.6675 0.0802525 22.5102 0.409288 23.6417C1.13156 26.1617 2.88909 27.3173 5.22444 26.8117C7.10234 26.4104 9.32534 25.006 12.4793 22.2373C13.6911 21.17 14.317 20.7767 15.4647 20.3434C18.9316 19.0272 24.0998 19.3161 26.9006 20.9773C27.2056 21.1619 27.9359 21.7317 28.5137 22.2373C32.5424 25.7764 35.1747 27.1648 37.3254 26.8759C39.2114 26.6271 40.375 25.1826 40.8485 22.4781C41.0491 21.3465 41.0491 18.1926 40.8565 16.5795C40.2627 11.6681 38.8823 7.00539 37.2452 4.38113C35.7846 2.05381 34.2518 0.737671 32.3337 0.191954C31.788 0.0394745 31.5071 0.00737381 30.4478 0.00737381C29.0113 0.00737381 28.594 0.0795994 25.2956 0.89015C22.7114 1.51612 21.3953 1.75688 20.4965 1.75688C19.6217 1.75688 18.3939 1.5402 15.7134 0.898176C14.5257 0.617292 13.1373 0.304308 12.6317 0.21603C11.4199 -0.00867844 10.0396 -0.0648537 9.28521 0.0795994ZM13.0731 2.17419C13.6028 2.28654 14.614 2.5273 15.3122 2.70386C18.4741 3.49836 19.9909 3.72306 21.2428 3.57861C22.4306 3.4502 23.193 3.29773 25.3919 2.77608C28.6421 2.00566 28.9872 1.94146 30.207 1.94948C31.162 1.94948 31.3707 1.97356 31.9325 2.15814C33.69 2.74398 34.9821 4.06815 36.226 6.54795C37.4458 8.9796 38.2885 12.0131 38.8903 16.114C39.1231 17.7271 39.1552 21.4589 38.9385 22.4379C38.465 24.6288 37.5983 25.3591 35.9531 24.9739C34.4283 24.6128 32.4862 23.3528 29.8058 20.9613C28.2569 19.589 27.3902 19.0272 26.0098 18.5296C24.3807 17.9438 23.0806 17.7111 21.0582 17.6469C18.8433 17.5827 17.2061 17.7913 15.3202 18.4012C13.6509 18.9389 12.4391 19.6773 10.6656 21.2743C9.30126 22.4941 7.55176 23.7701 6.53255 24.2838C4.55834 25.2789 3.31443 25.2067 2.62426 24.051C2.30325 23.5133 2.15077 23.0318 1.99026 21.9966C1.81371 20.9051 1.87791 17.6709 2.11064 16.0418C2.85699 10.7211 4.43796 6.26707 6.39612 3.9879C7.25482 2.98474 8.43453 2.23839 9.54202 2.01369C10.3766 1.84516 11.8774 1.90936 13.0731 2.17419Z" fill="#737591"/>
<path d="M10.5774 5.11143C9.98351 5.18366 9.33346 5.51269 8.9001 5.94605C8.50686 6.33929 8.05745 7.17392 8.05745 7.519C8.05745 7.73568 7.92904 7.83199 7.64014 7.83199C7.55186 7.83199 7.25492 7.93632 6.97404 8.07275C5.69 8.69069 5.01588 10.0791 5.36096 11.4193C5.64987 12.5589 6.38017 13.2972 7.52778 13.6102C8.00127 13.7466 8.01732 13.7546 8.0735 14.0676C8.20993 14.8701 8.9322 15.7609 9.75078 16.1301C11.2996 16.8443 13.1455 16.0659 13.7473 14.4528C13.8437 14.204 13.9159 13.9392 13.9159 13.8589C13.9159 13.7466 13.9961 13.6984 14.2449 13.6583C15.1036 13.5219 15.9784 12.8157 16.3877 11.9409C16.6846 11.3149 16.7006 10.2476 16.4198 9.63767C15.9543 8.61846 15.232 8.04064 14.1486 7.79989C13.9801 7.75976 13.9239 7.69556 13.8838 7.4548C13.8035 6.95724 13.4825 6.37139 13.0652 5.95408C12.4071 5.29601 11.5163 4.99105 10.5774 5.11143ZM11.5645 7.07761C11.9015 7.28627 12.0059 7.55913 12.0701 8.35363C12.1503 9.42901 12.4071 9.67779 13.4344 9.67779C14.1005 9.67779 14.4134 9.8062 14.6382 10.1834C14.9511 10.689 14.7585 11.4433 14.261 11.6841C14.1326 11.7403 13.7313 11.8045 13.3541 11.8286C12.3269 11.8847 12.0701 12.1335 12.0701 13.0885C12.0701 14.0355 11.7009 14.4929 10.9385 14.4929C10.2564 14.4929 9.90326 14.0355 9.90326 13.1688C9.90326 12.1335 9.55014 11.7644 8.55501 11.7644C7.63211 11.7644 7.17467 11.4112 7.17467 10.697C7.17467 10.047 7.64014 9.67779 8.47476 9.66977C9.5662 9.66174 9.83905 9.39691 9.90326 8.27338C9.94338 7.57518 9.96746 7.49493 10.1841 7.27022C10.5613 6.87698 11.1231 6.79673 11.5645 7.07761Z" fill="#737591"/>
<path d="M28.642 5.4886C27.3901 6.07445 27.2857 7.84 28.4574 8.61042C28.7463 8.80303 28.8667 8.83513 29.3964 8.83513C29.926 8.83513 30.0545 8.80303 30.3434 8.61042C30.536 8.49005 30.7848 8.24126 30.9051 8.05668C31.0977 7.76777 31.1298 7.64739 31.1298 7.1097C31.1298 6.57201 31.0977 6.45163 30.9051 6.16272C30.56 5.64108 30.1267 5.3923 29.4927 5.3602C29.0994 5.34415 28.8747 5.37625 28.642 5.4886Z" fill="#737591"/>
<path d="M25.1911 9.04379C24.822 9.14812 24.3083 9.62963 24.1478 10.0148C23.6583 11.2186 24.4769 12.4946 25.7368 12.4946C26.4992 12.4946 27.061 12.1496 27.366 11.4915C27.687 10.8013 27.5907 10.1352 27.0931 9.58148C26.5955 9.02774 25.9054 8.83513 25.1911 9.04379Z" fill="#737591"/>
<path d="M32.3339 9.10799C31.3949 9.54135 31.0097 10.5606 31.4431 11.4835C31.7641 12.1736 32.2857 12.4946 33.0562 12.4946C34.0112 12.4946 34.7896 11.7162 34.7896 10.7692C34.7896 9.99077 34.4686 9.46913 33.7784 9.14812C33.2969 8.91539 32.7753 8.89933 32.3339 9.10799Z" fill="#737591"/>
<path d="M28.8425 12.6873C27.2214 13.1929 27.2696 15.5924 28.9148 16.0739C30.0383 16.3949 31.1618 15.5523 31.1699 14.3886C31.1699 13.6182 30.6482 12.8959 29.934 12.6873C29.4525 12.5428 29.316 12.5428 28.8425 12.6873Z" fill="#737591"/>
</svg>
