<svg width="29" height="30" viewBox="0 0 29 30" fill="none" xmlns="http://www.w3.org/2000/svg">
<path d="M13.4824 0.0332336C10.3887 0.466827 7.92188 2.51175 6.94336 5.44144C6.67969 6.22659 6.5625 6.93558 6.5625 7.72659V8.37698L6.82617 7.83206C7.30078 6.85355 8.02148 5.86917 8.70117 5.26566C8.87109 5.10745 9.15234 4.77347 9.31641 4.51566C9.67969 3.95901 10.4824 3.15042 11.0156 2.79886C12.3281 1.93753 13.8223 1.58597 15.334 1.79691C15.9023 1.87308 16.8984 2.2012 17.4023 2.47073C18.2637 2.93948 19.1074 3.71878 19.6406 4.53909C19.7988 4.78519 20.0742 5.10745 20.2441 5.26566C20.9238 5.86917 21.6445 6.85355 22.1191 7.83206L22.3828 8.37698V7.73245C22.3828 4.11136 19.6465 0.853546 15.9902 0.121124C15.457 0.00979614 13.9922 -0.0370789 13.4824 0.0332336Z" fill="#F89D09"/>
<path d="M13.752 4.78519C11.4609 5.02542 9.36328 6.543 8.37891 8.66409C8.25586 8.92776 8.13867 9.20316 8.11523 9.27347L8.08008 9.40823H10.4883C13.2188 9.40823 13.4766 9.37894 14.2676 8.99808C14.5254 8.86917 14.8887 8.64651 15.0703 8.50003C15.9551 7.78519 16.5586 6.50784 16.5117 5.43558L16.4941 5.04886L16.084 4.94339C15.6738 4.84378 14.6602 4.71487 14.3613 4.72659C14.2793 4.73245 14.0039 4.75589 13.752 4.78519Z" fill="#F89D09"/>
<path d="M18.2578 6.08011C18.1465 6.71292 17.9531 7.38675 17.7773 7.75589L17.5723 8.20706L17.8418 8.45901C18.457 9.01566 19.2949 9.33792 20.2676 9.39066L20.8711 9.42581L20.8301 9.28519C20.7246 8.92776 20.1914 7.91995 19.875 7.49808C19.5469 7.05862 18.6328 6.13284 18.3984 6.0098C18.3047 5.95706 18.2812 5.96878 18.2578 6.08011Z" fill="#F89D09"/>
<path d="M5.2207 8.68167C4.23047 8.94534 3.4043 9.82425 3.22266 10.8086C3.14648 11.2188 3.14648 13.6328 3.22266 14.043C3.31055 14.5235 3.60938 15.0801 3.98438 15.4492C4.51172 15.9766 5.20313 16.2637 5.96484 16.2637C6.29297 16.2637 6.33398 16.252 6.30469 16.1582C6.04102 15.3028 5.95313 14.2188 5.99414 12.1621C6.0293 10.3575 6.08203 9.90628 6.38086 8.94534L6.49219 8.58792L6.01172 8.59378C5.75391 8.59378 5.39648 8.6348 5.2207 8.68167Z" fill="#F89D09"/>
<path d="M22.5996 9.06839C22.8691 10.0059 22.9219 10.4688 22.9512 12.1739C22.9922 14.1719 22.8984 15.3203 22.6406 16.1582C22.6113 16.252 22.6523 16.2637 22.9629 16.2637C24.1055 16.2637 25.0371 15.6953 25.5293 14.6934L25.752 14.2481V12.4258V10.6035L25.5352 10.1641C25.0312 9.14456 24.0996 8.58792 22.8867 8.58792H22.459L22.5996 9.06839Z" fill="#F89D09"/>
<path d="M16.0254 9.97074C15.2812 10.545 14.4375 10.9141 13.4824 11.0782C13.1016 11.1485 12.4102 11.1661 10.3652 11.1661H7.73438V12.6133C7.73438 14.1836 7.78711 14.8575 7.97461 15.5782C8.4375 17.4004 9.7793 19.0469 11.5137 19.9082C14.5137 21.4082 18.1875 20.4121 20.0742 17.5821C20.3379 17.1778 20.7422 16.4043 20.7422 16.293C20.7422 16.2754 19.6172 16.2637 18.2402 16.2637C15.8965 16.2637 15.7148 16.252 15.4863 16.1465C15.1582 16 15 15.7364 15 15.3379C15 15.0567 15.0234 15.0039 15.2285 14.7813L15.4629 14.5352L18.2988 14.5176L21.1406 14.5L21.1758 14.3184C21.1934 14.2188 21.2109 13.4746 21.2109 12.6602V11.1836L20.3789 11.1485C19.4648 11.1133 18.8613 10.9903 18.2168 10.7149C17.7012 10.4922 17.0859 10.1289 16.7871 9.85941C16.6465 9.74222 16.5117 9.64261 16.4824 9.64847C16.459 9.64847 16.2539 9.79496 16.0254 9.97074Z" fill="#F89D09"/>
<path d="M6.36328 19.7793C4.82227 20.0664 4.30664 20.207 3.7793 20.4649C2.75977 20.9746 1.89258 21.918 1.42969 23.0254C1.25391 23.4414 0 28.8086 0 29.1426C0 29.4297 0.199219 29.7344 0.46875 29.8692C0.662109 29.9688 1.45312 29.9746 14.4727 29.9746C27.4922 29.9746 28.2832 29.9688 28.4766 29.8692C28.7461 29.7344 28.9453 29.4297 28.9453 29.1485C28.9453 28.9141 27.791 23.8164 27.627 23.3242C27.1055 21.7774 25.7637 20.5059 24.2285 20.1074C23.8359 20.0078 21.0469 19.4863 20.9004 19.4863C20.8125 19.4863 20.8008 19.7676 20.7891 22.6445C20.7715 25.75 20.7715 25.8086 20.6484 25.9727C20.4492 26.2422 20.168 26.4004 19.8867 26.4004C19.5938 26.4004 19.7812 26.5176 16.5527 24.2442C15.4395 23.4649 14.5078 22.8262 14.4727 22.8262C14.4375 22.8262 13.3418 23.582 12.0352 24.502C10.7285 25.4219 9.57422 26.2246 9.47461 26.2891C9.09375 26.5176 8.60156 26.3828 8.29688 25.9727C8.17383 25.8086 8.17383 25.75 8.15625 22.6445L8.13867 19.4863L8.00977 19.4922C7.93945 19.4922 7.19531 19.627 6.36328 19.7793Z" fill="#F89D09"/>
<path d="M9.90234 22.4453C9.90234 23.5352 9.91992 23.8223 9.97852 23.7871C10.2012 23.6582 12.3047 22.1582 12.3047 22.1231C12.3047 22.1055 12.0762 22.0118 11.8008 21.9239C11.5195 21.836 10.998 21.6133 10.6406 21.4258C10.2832 21.2442 9.97266 21.086 9.94922 21.0801C9.91992 21.0684 9.90234 21.6836 9.90234 22.4453Z" fill="#F89D09"/>
<path d="M18.3691 21.3965C18.0469 21.5664 17.5254 21.795 17.2148 21.9004C16.8984 22.0059 16.6406 22.1055 16.6406 22.1231C16.6406 22.1524 18.7324 23.6465 18.9727 23.7871C19.0254 23.8223 19.043 23.5352 19.043 22.4512C19.043 21.6895 19.0254 21.0684 19.002 21.0743C18.9727 21.0801 18.6914 21.2207 18.3691 21.3965Z" fill="#F89D09"/>
</svg>
