<svg width="35" height="31" viewBox="0 0 35 31" fill="none" xmlns="http://www.w3.org/2000/svg">
<path d="M0.533203 0.144744C0.239258 0.296382 0 0.703045 0 1.03389C0 1.37852 0.239258 1.7714 0.546875 1.92993C0.799805 2.06089 0.943359 2.06778 3.58203 2.06778H6.35742L6.3916 2.21942C6.48047 2.58473 10.0488 18.8168 10.0488 18.8513C10.0488 18.8651 9.91895 18.9478 9.76172 19.0305C9.59766 19.1132 9.29688 19.3544 9.0918 19.5681C8.17578 20.5193 7.96387 21.8289 8.53125 23.0489C8.92773 23.9036 9.78223 24.5653 10.7256 24.7445C10.9307 24.7789 11.5254 24.8134 12.0586 24.8203C12.8037 24.8272 12.9541 24.841 12.7217 24.8892C11.1699 25.1925 10.0488 26.8054 10.3086 28.37C10.5889 30.0587 12.1543 31.2304 13.7812 30.9616C15.1211 30.741 16.1328 29.7209 16.3516 28.37C16.6113 26.8054 15.4902 25.1925 13.9385 24.8892C13.7607 24.8547 16.502 24.8272 20.5762 24.8272C24.6504 24.8272 27.3916 24.8547 27.2139 24.8892C25.6621 25.1925 24.541 26.8054 24.8008 28.37C25.0195 29.7209 26.0312 30.741 27.3711 30.9616C28.998 31.2304 30.5635 30.0587 30.8438 28.37C31.1035 26.8054 29.9824 25.1925 28.4307 24.8892C28.1982 24.841 28.3555 24.8272 29.1074 24.8203C29.9414 24.8134 30.126 24.7927 30.3516 24.6755C30.6592 24.517 30.8984 24.1241 30.8984 23.7795C30.8984 23.4349 30.6592 23.042 30.3516 22.8835C30.085 22.7456 29.9688 22.7456 20.5762 22.7456C11.1836 22.7456 11.0674 22.7456 10.8008 22.6078C10.4932 22.4492 10.2539 22.0563 10.2539 21.7117C10.2539 21.4015 10.4932 20.9742 10.7529 20.8364C10.958 20.7192 11.5527 20.7123 20.5898 20.6778C30.167 20.6434 30.208 20.6434 30.3926 20.4986C30.4951 20.4228 30.6387 20.2849 30.707 20.1884C30.8438 20.0092 35 5.42448 35 5.13499C35 4.82482 34.7471 4.42505 34.4531 4.27342C34.1865 4.13556 34.0771 4.13556 21.5469 4.13556H8.90723L8.53809 2.43309C8.27148 1.19931 8.12109 0.66169 7.99805 0.475589C7.69727 -5.42766e-07 7.71777 -5.42766e-07 4.04688 -5.42766e-07C0.936523 0.00689206 0.772461 0.0137847 0.533203 0.144744ZM32.5801 6.32052C32.5596 6.38945 31.7734 9.18095 30.8232 12.5239L29.1006 18.61H20.6035H12.0996L12.0654 18.4515C12.0449 18.3688 11.4434 15.6462 10.7324 12.4067C10.0215 9.16717 9.41992 6.44459 9.39941 6.35498L9.36523 6.20335H20.9863C32.0332 6.20335 32.6143 6.21024 32.5801 6.32052ZM13.8086 27.019C14.1162 27.1776 14.3555 27.5704 14.3555 27.9151C14.3555 28.4389 13.8496 28.949 13.3301 28.949C12.8105 28.949 12.3047 28.4389 12.3047 27.9151C12.3047 27.5842 12.5439 27.1776 12.8379 27.0259C13.166 26.8467 13.4736 26.8467 13.8086 27.019ZM28.3008 27.019C28.6084 27.1776 28.8477 27.5704 28.8477 27.9151C28.8477 28.4389 28.3418 28.949 27.8223 28.949C27.3027 28.949 26.7969 28.4389 26.7969 27.9151C26.7969 27.5842 27.0361 27.1776 27.3301 27.0259C27.6582 26.8467 27.9658 26.8467 28.3008 27.019Z" fill="#F89D09"/>
</svg>
