<svg width="15" height="18" viewBox="0 0 15 18" fill="none" xmlns="http://www.w3.org/2000/svg">
<path d="M6.72848 0.0461521C5.76871 0.193809 4.9109 0.65084 4.23942 1.36451C3.50113 2.1485 3.11793 3.05553 3.0652 4.14185C2.99137 5.6606 3.73668 7.11256 5.0234 7.95279C5.65621 8.36764 6.26442 8.57857 7.0027 8.63834C8.37028 8.74381 9.53746 8.3149 10.4797 7.35514C11.2285 6.59576 11.6082 5.76607 11.6996 4.70787C11.8261 3.29459 11.2918 1.97975 10.2265 1.05865C9.53746 0.468027 8.90465 0.172714 8.02926 0.0461521C7.60738 -0.0136137 7.1152 -0.0171289 6.72848 0.0461521Z" fill="#707070" fill-opacity="0.85"/>
<path d="M3.53628 8.71564C1.94722 8.88439 0.843314 10.0235 0.330033 12.0344C-0.0109831 13.3738 -0.0988737 14.984 0.119095 15.8664C0.298392 16.5731 0.885501 17.2903 1.56402 17.6348C1.86988 17.7895 2.30933 17.916 2.67847 17.9582C2.89644 17.9863 4.55581 17.9934 7.73042 17.9863L12.4589 17.9758L12.7578 17.8914C13.8687 17.5891 14.6281 16.8438 14.9058 15.7961C15.05 15.2512 15.0324 13.9504 14.8636 12.9238C14.4945 10.6387 13.5593 9.2676 12.0793 8.83869C11.7418 8.74025 11.1371 8.66642 10.9578 8.70158C10.7855 8.73322 10.5464 8.85978 10.005 9.20783C9.42847 9.58049 9.34761 9.62267 8.91519 9.78439C8.41597 9.97072 8.00464 10.0516 7.523 10.0516C7.03081 10.0516 6.65113 9.98127 6.15191 9.80549C5.68081 9.63674 5.65972 9.62619 4.92144 9.15861C4.53472 8.91252 4.24644 8.75431 4.13394 8.72267C3.93706 8.67345 3.93706 8.67345 3.53628 8.71564Z" fill="#707070" fill-opacity="0.85"/>
</svg>
